HIERARCHY
ROOT Hips
{
	OFFSET 0.000000 8.830580 0.000000
	CHANNELS 6 Xposition Yposition Zposition Zrotation Yrotation Xrotation 
	JOINT Spine
	{
		OFFSET 0.000000 0.010000 0.000000
		CHANNELS 3 Zrotation Yrotation Xrotation
		JOINT Spine1
		{
			OFFSET 0.000000 2.459130 0.000000
			CHANNELS 3 Zrotation Yrotation Xrotation
			JOINT Neck
			{
				OFFSET 0.000000 2.484630 0.000000
				CHANNELS 3 Zrotation Yrotation Xrotation
				JOINT Head_virtual
				{
					OFFSET 0.000000 0.000000 0.000000
					CHANNELS 3 Zrotation Yrotation Xrotation
					JOINT Head
					{
						OFFSET 0.000000 0.927525 0.000000
						CHANNELS 3 Zrotation Yrotation Xrotation
						End Site
						{
							OFFSET 0.000000 0.000000 0.000000
						}
					}
				}
				JOINT LeftUpArm_virtual
				{
					OFFSET 0.000000 0.000000 0.000000
					CHANNELS 3 Zrotation Yrotation Xrotation
					JOINT LeftUpArm
					{
						OFFSET 1.248820 0.000000 0.000000
						CHANNELS 3 Zrotation Yrotation Xrotation
						JOINT LeftForeArm
						{
							OFFSET 2.597580 0.000000 0.000000
							CHANNELS 3 Zrotation Yrotation Xrotation
							JOINT LeftHand
							{
								OFFSET 2.455420 0.000000 0.000000
								CHANNELS 3 Zrotation Yrotation Xrotation
								End Site
								{
									OFFSET 0.000000 0.000000 0.000000
								}
							}
						}
					}
				}
				JOINT RightUpArm_virtual
				{
					OFFSET -0.000000 -0.000000 -0.000000
					CHANNELS 3 Zrotation Yrotation Xrotation
					JOINT RightUpArm
					{
						OFFSET -1.248820 -0.000000 -0.000000
						CHANNELS 3 Zrotation Yrotation Xrotation
						JOINT RightForeArm
						{
							OFFSET -2.597580 -0.000000 -0.000000
							CHANNELS 3 Zrotation Yrotation Xrotation
							JOINT RightHand
							{
								OFFSET -2.455420 -0.000000 -0.000000
								CHANNELS 3 Zrotation Yrotation Xrotation
								End Site
								{
									OFFSET 0.000000 0.000000 0.000000
								}
							}
						}
					}
				}
			}
		}
	}
	JOINT LeftUpLeg
	{
		OFFSET 1.271939 0.000000 0.000000
		CHANNELS 3 Zrotation Yrotation Xrotation
		JOINT LeftLowLeg
		{
			OFFSET 0.000000 -4.342910 0.000000
			CHANNELS 3 Zrotation Yrotation Xrotation
			JOINT LeftFoot
			{
				OFFSET 0.000000 -4.487670 0.000000
				CHANNELS 3 Zrotation Yrotation Xrotation
				JOINT LeftToeBase
				{
					OFFSET 0.000000 0.000000 1.515070
					CHANNELS 3 Zrotation Yrotation Xrotation
					End Site
					{
						OFFSET 0.000000 0.000000 0.000000
					}
				}
			}
		}
	}
	JOINT RightUpLeg
	{
		OFFSET -1.271939 0.000000 0.000000
		CHANNELS 3 Zrotation Yrotation Xrotation
		JOINT RightLowLeg
		{
			OFFSET 0.000000 -4.342910 0.000000
			CHANNELS 3 Zrotation Yrotation Xrotation
			JOINT RightFoot
			{
				OFFSET 0.000000 -4.487670 0.000000
				CHANNELS 3 Zrotation Yrotation Xrotation
				JOINT RightToeBase
				{
					OFFSET 0.000000 0.000000 1.515070
					CHANNELS 3 Zrotation Yrotation Xrotation
					End Site
					{
						OFFSET 0.000000 0.000000 0.000000
					}
				}
			}
		}
	}
}
MOTION
Frames: 7
Frame Time: 0.041667
-14.044507 8.944178 22.126554 6.217382 -81.952006 3.925881 1.405524 4.891856 -16.855121 -4.956583 1.753894 13.403196 0.000000 0.000000 0.000000 -10.539267 12.915155 12.387006 -11.709194 11.806064 -89.553089 -25.334999 6.811850 5.414001 -47.024200 -6.451650 10.297600 0.000000 -12.764100 0.000000 5.816390 14.996700 6.857520 31.840900 -4.159730 2.872986 42.625599 8.185710 6.057007 0.000000 28.595800 0.000000 -0.254566 -6.179430 -12.062700 -6.194153 -1.689136 -11.047161 0.000000 0.000000 15.418400 -2.701812 19.012755 -1.369843 0.000000 0.000000 -30.367900 -3.884746 18.847417 -17.181288 0.000000 0.000000 23.416800 32.071686 1.480348 -8.086917 0.000000 0.000000 -17.169950 
-14.051070 8.944695 22.124483 6.318950 -81.923722 3.739352 1.391737 4.836914 -16.985817 -4.955681 1.736224 13.543036 0.000000 0.000000 0.000000 -10.342353 12.741290 12.552812 -11.699275 11.852790 -89.542148 -25.213699 6.966330 5.544006 -47.435699 -6.155440 9.707640 0.000000 -12.642600 0.000000 5.197510 15.030400 6.411730 31.808800 -4.121060 2.928009 42.742199 8.202680 6.092010 0.000000 28.383101 0.000000 -0.115900 -6.056550 -11.932400 -6.204495 -1.578630 -10.965114 0.000000 0.000000 15.501200 -2.759231 18.887974 -1.398096 0.000000 0.000000 -30.368600 -3.772275 18.461670 -17.053577 0.000000 0.000000 23.449699 32.118309 1.829986 -7.958484 0.000000 0.000000 -17.228800 
-14.060423 8.944932 22.123336 6.082224 -81.707707 3.619505 1.383337 4.773669 -16.943338 -4.871087 1.730848 13.773408 0.000000 0.000000 0.000000 -10.077454 12.462245 12.817868 -11.653701 11.878740 -89.529992 -25.182800 7.030260 5.546997 -47.717999 -5.932400 9.624720 0.000000 -12.481400 0.000000 4.987830 15.017000 7.479870 31.760799 -4.213600 2.871002 42.884701 8.111650 6.118988 0.000000 28.167000 0.000000 -0.018956 -6.161320 -11.769100 -6.189406 -1.251144 -10.636665 0.000000 0.000000 15.637800 -2.694236 18.481451 -1.414251 0.000000 0.000000 -30.358000 -3.520722 18.102947 -16.592682 0.000000 0.000000 23.501900 31.991704 1.890073 -7.949853 0.000000 0.000000 -17.232010 
-14.070649 8.944400 22.124557 5.820149 -81.320091 3.476524 1.453634 4.725294 -16.952453 -4.923645 1.679009 14.156005 0.000000 0.000000 0.000000 -9.710358 12.076107 13.039598 -11.599067 11.925216 -89.456820 -25.153299 6.991380 5.591003 -47.800701 -5.791170 10.746900 0.000000 -12.580400 0.000000 5.502840 14.913400 8.120750 31.755800 -4.293850 2.811005 43.018600 7.932100 6.143005 0.000000 27.852800 0.000000 0.024564 -6.074970 -11.717600 -6.173539 -0.996835 -10.250768 0.000000 0.000000 15.750400 -2.672332 17.953352 -1.431727 0.000000 0.000000 -30.431900 -3.286123 17.846227 -16.072458 0.000000 0.000000 23.610701 31.922545 1.805180 -8.102649 0.000000 0.000000 -17.196570 
-14.081567 8.943650 22.123854 5.458179 -80.851380 3.367716 1.490288 4.664542 -17.007838 -4.967015 1.664214 14.707944 0.000000 0.000000 0.000000 -9.221245 11.628649 13.138196 -11.614823 12.055809 -89.298541 -25.018499 6.734600 5.678986 -47.786598 -5.908120 13.302700 0.000000 -12.456300 0.000000 6.322950 14.621800 9.314370 31.811100 -4.352850 2.704987 43.102798 7.681180 6.158997 0.000000 27.520500 0.000000 0.157203 -6.180400 -11.652300 -6.112600 -0.884835 -9.827594 0.000000 0.000000 15.919200 -2.478416 17.545739 -1.434133 0.000000 0.000000 -30.424400 -2.987039 17.566105 -15.498037 0.000000 0.000000 23.786301 31.869538 1.653896 -8.304084 0.000000 0.000000 -17.211770 
-14.092182 8.943195 22.123464 5.089692 -80.338975 3.379950 1.497006 4.623167 -17.218163 -4.924433 1.714009 15.322324 0.000000 0.000000 0.000000 -8.813155 11.212545 13.171176 -11.479289 12.139719 -89.057574 -24.940201 6.216120 5.817993 -47.550999 -6.211820 17.354000 0.000000 -12.294900 0.000000 7.655140 14.096300 12.988700 31.837999 -4.415340 2.539001 43.181801 7.318730 6.119995 0.000000 27.074200 0.000000 0.327364 -6.150230 -11.856800 -6.035099 -0.821580 -9.502065 0.000000 0.000000 16.052999 -2.452994 17.048963 -1.477022 0.000000 0.000000 -30.390900 -2.737916 17.446381 -15.022395 0.000000 0.000000 23.917299 31.805826 1.339152 -8.573559 0.000000 0.000000 -17.291050 
-14.105469 8.942652 22.126104 4.716213 -79.541504 3.461590 1.524847 4.441098 -17.506455 -4.774593 1.645603 15.861314 0.000000 0.000000 0.000000 -8.731026 10.958249 13.300497 -11.101690 12.029047 -88.818327 -25.175600 5.679690 6.075989 -46.851898 -6.744840 23.448799 0.000000 -12.398300 0.000000 9.607470 13.291900 21.203100 31.720501 -4.552790 2.446991 43.301899 6.913750 6.263000 0.000000 26.625200 0.000000 0.379896 -6.318370 -11.790600 -5.954079 -0.962285 -9.255247 0.000000 0.000000 16.212900 -2.454420 16.490574 -1.497199 0.000000 0.000000 -30.428300 -2.495542 17.262504 -14.524757 0.000000 0.000000 24.038200 31.787525 0.941707 -9.007727 0.000000 0.000000 -17.345740 
